<svg aria-hidden="true" style="position: absolute; width: 0; height: 0; overflow: hidden;" version="1.1" xmlns="http://www.w3.org/2000/svg" xmlns:xlink="http://www.w3.org/1999/xlink">
<defs>
<symbol id="footer-bg-icons" viewBox="0 0 49 32">
<path fill="#ff4b32" style="fill: var(--color2, #ff4b32)" d="M13.77 4.069c-0.19-0.119-0.44-0.062-0.559 0.127s-0.062 0.438 0.127 0.557c0.578 0.362 0.922 0.983 0.922 1.661s-0.345 1.299-0.922 1.661c-0.19 0.119-0.247 0.368-0.127 0.557 0.077 0.122 0.209 0.189 0.344 0.189 0.074 0 0.149-0.020 0.216-0.062 0.815-0.511 1.301-1.388 1.301-2.345s-0.486-1.834-1.301-2.345z"></path>
</symbol>
<symbol id="Linkdin" viewBox="0 0 32 32">
<path fill="none" opacity="0.4" stroke="#fff" style="stroke: var(--color1, #fff)" stroke-linejoin="miter" stroke-linecap="butt" stroke-miterlimit="4" stroke-width="0.64" d="M31.68 16c0 8.66-7.020 15.68-15.68 15.68s-15.68-7.020-15.68-15.68c0-8.66 7.020-15.68 15.68-15.68s15.68 7.020 15.68 15.68z"></path>
<path fill="none" stroke="#fff" style="stroke: var(--color1, #fff)" stroke-linejoin="round" stroke-linecap="round" stroke-miterlimit="4" stroke-width="0.64" d="M18.134 13.867c0.849 0 1.663 0.337 2.263 0.937s0.937 1.414 0.937 2.263v3.733h-2.133v-3.733c0-0.283-0.112-0.554-0.312-0.754s-0.471-0.312-0.754-0.312-0.554 0.112-0.754 0.312c-0.2 0.2-0.312 0.471-0.312 0.754v3.733h-2.133v-3.733c0-0.849 0.337-1.663 0.937-2.263s1.414-0.937 2.263-0.937z"></path>
<path fill="none" stroke="#fff" style="stroke: var(--color1, #fff)" stroke-linejoin="round" stroke-linecap="round" stroke-miterlimit="4" stroke-width="0.64" d="M12.801 14.4h-2.133v6.4h2.133v-6.4z"></path>
<path fill="none" stroke="#fff" style="stroke: var(--color1, #fff)" stroke-linejoin="round" stroke-linecap="round" stroke-miterlimit="4" stroke-width="0.64" d="M11.734 12.8c0.589 0 1.067-0.478 1.067-1.067s-0.478-1.067-1.067-1.067-1.067 0.478-1.067 1.067c0 0.589 0.478 1.067 1.067 1.067z"></path>
</symbol>
<symbol id="Instagram" viewBox="0 0 32 32">
<path fill="none" opacity="0.4" stroke="#fff" style="stroke: var(--color1, #fff)" stroke-linejoin="miter" stroke-linecap="butt" stroke-miterlimit="4" stroke-width="0.64" d="M31.68 16c0 8.66-7.020 15.68-15.68 15.68s-15.68-7.020-15.68-15.68c0-8.66 7.020-15.68 15.68-15.68s15.68 7.020 15.68 15.68z"></path>
<path fill="none" stroke="#fff" style="stroke: var(--color1, #fff)" stroke-linejoin="round" stroke-linecap="round" stroke-miterlimit="4" stroke-width="0.64" d="M18.667 10.667h-5.333c-1.473 0-2.667 1.194-2.667 2.667v5.333c0 1.473 1.194 2.667 2.667 2.667h5.333c1.473 0 2.667-1.194 2.667-2.667v-5.333c0-1.473-1.194-2.667-2.667-2.667z"></path>
<path fill="none" stroke="#fff" style="stroke: var(--color1, #fff)" stroke-linejoin="round" stroke-linecap="round" stroke-miterlimit="4" stroke-width="0.64" d="M18.133 15.664c0.066 0.444-0.010 0.897-0.217 1.295s-0.534 0.721-0.934 0.923c-0.401 0.202-0.855 0.272-1.298 0.201s-0.852-0.28-1.17-0.598c-0.317-0.317-0.526-0.727-0.598-1.17s-0.001-0.897 0.201-1.298c0.202-0.401 0.525-0.728 0.923-0.934s0.852-0.283 1.295-0.217c0.453 0.067 0.872 0.278 1.196 0.602s0.535 0.743 0.602 1.196z"></path>
<path fill="none" stroke="#fff" style="stroke: var(--color1, #fff)" stroke-linejoin="round" stroke-linecap="round" stroke-miterlimit="4" stroke-width="0.64" d="M18.933 13.067h0.006"></path>
</symbol>
<symbol id="Facebook" viewBox="0 0 32 32">
<path fill="none" opacity="0.4" stroke="#fff" style="stroke: var(--color1, #fff)" stroke-linejoin="miter" stroke-linecap="butt" stroke-miterlimit="4" stroke-width="0.64" d="M31.68 16c0 8.66-7.020 15.68-15.68 15.68s-15.68-7.020-15.68-15.68c0-8.66 7.020-15.68 15.68-15.68s15.68 7.020 15.68 15.68z"></path>
<path fill="none" stroke="#fff" style="stroke: var(--color1, #fff)" stroke-linejoin="round" stroke-linecap="round" stroke-miterlimit="4" stroke-width="0.64" d="M18.667 10.667h-1.6c-0.707 0-1.386 0.281-1.886 0.781s-0.781 1.178-0.781 1.886v1.6h-1.6v2.133h1.6v4.267h2.133v-4.267h1.6l0.533-2.133h-2.133v-1.6c0-0.141 0.056-0.277 0.156-0.377s0.236-0.156 0.377-0.156h1.6v-2.133z"></path>
</symbol>
<symbol id="Twitter" viewBox="0 0 32 32">
<path fill="none" opacity="0.4" stroke="#fff" style="stroke: var(--color1, #fff)" stroke-linejoin="miter" stroke-linecap="butt" stroke-miterlimit="4" stroke-width="0.64" d="M31.68 16c0 8.66-7.020 15.68-15.68 15.68s-15.68-7.020-15.68-15.68c0-8.66 7.020-15.68 15.68-15.68s15.68 7.020 15.68 15.68z"></path>
<path fill="none" stroke="#fff" style="stroke: var(--color1, #fff)" stroke-linejoin="round" stroke-linecap="round" stroke-miterlimit="4" stroke-width="0.64" d="M21.333 11.739c-0.511 0.36-1.076 0.636-1.675 0.816-0.321-0.369-0.748-0.631-1.223-0.75s-0.975-0.089-1.432 0.086c-0.457 0.175-0.85 0.485-1.125 0.89s-0.419 0.885-0.412 1.374v0.533c-0.937 0.024-1.866-0.184-2.704-0.605s-1.558-1.044-2.096-1.811c0 0-2.133 4.8 2.667 6.933-1.098 0.746-2.407 1.119-3.733 1.067 4.8 2.667 10.667 0 10.667-6.133-0-0.149-0.015-0.297-0.043-0.443 0.544-0.537 0.928-1.215 1.109-1.957v0z"></path>
</symbol>
<symbol id="mail" viewBox="0 0 40 32">
<path fill="none" stroke="#fff" style="stroke: var(--color1, #fff)" stroke-linejoin="round" stroke-linecap="round" stroke-miterlimit="4" stroke-width="4" d="M5.5 2h28c1.925 0 3.5 1.575 3.5 3.5v21c0 1.925-1.575 3.5-3.5 3.5h-28c-1.925 0-3.5-1.575-3.5-3.5v-21c0-1.925 1.575-3.5 3.5-3.5z"></path>
<path fill="none" stroke="#fff" style="stroke: var(--color1, #fff)" stroke-linejoin="round" stroke-linecap="round" stroke-miterlimit="4" stroke-width="4" d="M37 5.5l-17.5 12.25-17.5-12.25"></path>
</symbol>
<symbol id="telephone" viewBox="0 0 32 32">
<path fill="#fff" style="fill: var(--color1, #fff)" d="M32 12.177c0-5.069-4.124-9.193-9.193-9.193h-13.614c-5.069 0-9.193 4.124-9.193 9.193 0 1.497 1.218 2.715 2.715 2.715h2.591l-1.876 4.249c-0.663 1.502-0.999 3.095-0.999 4.737v1.741c0 1.874 1.525 3.399 3.399 3.399h20.34c1.874 0 3.399-1.525 3.399-3.399v-1.741c0-1.641-0.336-3.235-0.999-4.737l-1.876-4.249h2.592c1.497-0 2.715-1.218 2.715-2.715zM9.193 5.080l13.614 0c2.952 0 5.489 1.812 6.557 4.382h-6.040c-0.516-0.534-1.239-0.868-2.039-0.868h-10.569c-0.801 0-1.526 0.335-2.042 0.871-0.020-0.001-0.040-0.003-0.060-0.003h-5.977c1.068-2.57 3.605-4.382 6.557-4.382zM2.715 12.796c-0.341 0-0.619-0.277-0.619-0.619 0-0.209 0.010-0.415 0.027-0.619h5.755v0.809c0 0.236-0.192 0.429-0.429 0.429l-4.735 0zM27.473 23.877v1.741c0 0.718-0.584 1.303-1.303 1.303h-20.34c-0.718 0-1.303-0.584-1.303-1.303v-1.741c0-1.348 0.276-2.657 0.821-3.89l2.252-5.1c1.323-0.078 2.375-1.178 2.375-2.52v-0.935c0-0.409 0.332-0.741 0.741-0.741h10.569c0.409 0 0.741 0.332 0.741 0.741v0.935c0 1.342 1.052 2.442 2.375 2.52l2.252 5.1c0.545 1.233 0.821 2.542 0.821 3.89zM24.55 12.796v-0c-0.236 0-0.429-0.192-0.429-0.429v-0.809h5.755c0.018 0.204 0.027 0.41 0.027 0.619 0 0.341-0.277 0.619-0.619 0.619l-4.735-0z"></path>
<path fill="#fff" style="fill: var(--color1, #fff)" d="M12.34 17.115c0.64 0 1.159-0.519 1.159-1.159s-0.519-1.159-1.159-1.159c-0.64 0-1.159 0.519-1.159 1.159s0.519 1.159 1.159 1.159z"></path>
<path fill="#fff" style="fill: var(--color1, #fff)" d="M16 17.115c0.64 0 1.159-0.519 1.159-1.159s-0.519-1.159-1.159-1.159c-0.64 0-1.159 0.519-1.159 1.159s0.519 1.159 1.159 1.159z"></path>
<path fill="#fff" style="fill: var(--color1, #fff)" d="M19.66 17.115c0.64 0 1.159-0.519 1.159-1.159s-0.519-1.159-1.159-1.159c-0.64 0-1.16 0.519-1.16 1.159s0.519 1.159 1.16 1.159z"></path>
<path fill="#fff" style="fill: var(--color1, #fff)" d="M12.34 20.64c0.64 0 1.159-0.519 1.159-1.16s-0.519-1.159-1.159-1.159c-0.64 0-1.159 0.519-1.159 1.159s0.519 1.16 1.159 1.16z"></path>
<path fill="#fff" style="fill: var(--color1, #fff)" d="M16 20.64c0.64 0 1.159-0.519 1.159-1.16s-0.519-1.159-1.159-1.159c-0.64 0-1.159 0.519-1.159 1.159s0.519 1.16 1.159 1.16z"></path>
<path fill="#fff" style="fill: var(--color1, #fff)" d="M19.66 20.64c0.64 0 1.159-0.519 1.159-1.16s-0.519-1.159-1.159-1.159c-0.64 0-1.16 0.519-1.16 1.159s0.519 1.16 1.16 1.16z"></path>
<path fill="#fff" style="fill: var(--color1, #fff)" d="M12.34 24.164c0.64 0 1.159-0.519 1.159-1.159s-0.519-1.16-1.159-1.16c-0.64 0-1.159 0.519-1.159 1.16s0.519 1.159 1.159 1.159z"></path>
<path fill="#fff" style="fill: var(--color1, #fff)" d="M16 24.164c0.64 0 1.159-0.519 1.159-1.159s-0.519-1.16-1.159-1.16c-0.64 0-1.159 0.519-1.159 1.16s0.519 1.159 1.159 1.159z"></path>
<path fill="#fff" style="fill: var(--color1, #fff)" d="M19.66 24.164c0.64 0 1.159-0.519 1.159-1.159s-0.519-1.16-1.159-1.16c-0.64 0-1.16 0.519-1.16 1.16s0.519 1.159 1.16 1.159z"></path>
</symbol>
<symbol id="logo-icon" viewBox="0 0 31 32">
<path fill="#ff4b32" style="fill: var(--color2, #ff4b32)" d="M27.593 23.090h-3.916c-0.224 0-0.406 0.181-0.406 0.404s0.182 0.404 0.406 0.404h3.51v0.228l-5.904 1.117h-11.836l-5.904-1.117v-0.228h1.612c0.001 0 0.001 0 0.002 0s0.001-0 0.002-0h1.461c0 0 0.001 0 0.001 0s0.002-0 0.002-0h4.862c0 0 0.001 0 0.001 0s0.001-0 0.001-0h1.449c0 0 0.001 0 0.001 0s0.001-0 0.001-0h4.855c0 0 0.001 0 0.001 0s0.001-0 0.001-0h4.377c0.224 0 0.405-0.181 0.405-0.404s-0.181-0.404-0.405-0.404h-2.616c0.484-0.307 0.936-0.666 1.343-1.070 0.586-0.585 1.068-1.246 1.436-1.961 0.513 0.208 1.056 0.314 1.619 0.314 2.375 0 4.307-1.926 4.307-4.293s-1.932-4.292-4.307-4.292c-0.257 0-0.512 0.023-0.763 0.068v-0.231c0-0.517-0.422-0.938-0.941-0.938h-1.918c-0.224 0-0.406 0.181-0.406 0.404s0.182 0.404 0.406 0.404h1.918c0.072 0 0.13 0.058 0.13 0.13v0.687h-14.029v-0.687c0-0.072 0.058-0.13 0.13-0.13h10.344c0.224 0 0.405-0.181 0.405-0.404s-0.181-0.404-0.405-0.404h-10.344c-0.519 0-0.941 0.421-0.941 0.938v4.88c0 0.61 0.072 1.214 0.211 1.801-0.66-0.196-1.446-0.042-2.164 0.447-0.185 0.126-0.232 0.378-0.106 0.562s0.379 0.231 0.564 0.105c0.47-0.321 0.964-0.447 1.372-0.365l-1.477 2.202c-0.124 0.186-0.074 0.437 0.112 0.561 0.069 0.046 0.148 0.068 0.225 0.068 0.131 0 0.259-0.063 0.338-0.18l1.477-2.203c0.153 0.227 0.237 0.523 0.241 0.869 0 0 0 0 0 0s0 0.002 0 0.002c0.005 0.534-0.182 1.111-0.527 1.626-0.197 0.294-0.43 0.545-0.693 0.749-0.183 0.143-0.375 0.257-0.571 0.34h-1.281c-0.015-0.009-0.029-0.018-0.044-0.027-0.675-0.449-0.718-1.611-0.097-2.646 0.115-0.192 0.052-0.44-0.14-0.554s-0.441-0.052-0.556 0.139c-0.396 0.659-0.589 1.394-0.544 2.068 0.025 0.383 0.126 0.728 0.291 1.020h-1.033c-0.224 0-0.405 0.181-0.405 0.404v0.967c0 0.194 0.139 0.361 0.33 0.397l5.963 1.128v1.196c0 0.223 0.182 0.404 0.406 0.404h11.869c0.224 0 0.406-0.181 0.406-0.404v-1.196l5.964-1.129c0.191-0.036 0.33-0.203 0.33-0.397v-0.967c0-0.223-0.182-0.404-0.406-0.404zM23.191 16.505v-1.912h0c0.235-0.12 0.495-0.184 0.763-0.184 0.924 0 1.677 0.75 1.677 1.671s-0.752 1.671-1.677 1.671c-0.295 0-0.578-0.076-0.83-0.22 0.044-0.337 0.067-0.68 0.067-1.026zM22.969 18.357c0.308 0.133 0.641 0.202 0.984 0.202 1.372 0 2.488-1.112 2.488-2.479s-1.116-2.479-2.488-2.479c-0.262 0-0.518 0.041-0.763 0.119v-1c0-0.001 0-0.003 0-0.004s-0-0.003-0-0.004v-0.032c0.249-0.055 0.504-0.084 0.763-0.084 1.928 0 3.496 1.563 3.496 3.484s-1.568 3.484-3.496 3.484c-0.447 0-0.878-0.083-1.286-0.244 0.122-0.313 0.222-0.635 0.302-0.963zM8.351 13.12h14.029v1.244c0 0 0 0.001 0 0.001v2.14c0 1.867-0.73 3.623-2.054 4.943-0.734 0.731-1.633 1.297-2.602 1.642h-4.715c-0.131-0.046-0.261-0.096-0.389-0.151 0.298-0.466 0.411-0.985 0.313-1.479-0-0.001-0-0.001-0-0.002s-0-0.002-0.001-0.002c-0.129-0.643-0.585-1.172-1.284-1.49-0.655-0.298-1.455-0.375-2.253-0.217-0.073 0.014-0.145 0.031-0.216 0.049-0.541-1.008-0.827-2.14-0.827-3.293v-3.385zM8.48 22.45c0.375-0.56 0.602-1.187 0.653-1.796 0.136-0.046 0.276-0.084 0.419-0.112 1.032-0.204 2.027 0.105 2.423 0.694l-2.606 0.516c-0.22 0.044-0.362 0.256-0.319 0.475 0.038 0.192 0.208 0.325 0.397 0.325 0.026 0 0.053-0.002 0.079-0.008l2.608-0.517c-0.052 0.266-0.201 0.532-0.439 0.777-0.001 0.001-0.001 0.001-0.002 0.002-0.099 0.102-0.212 0.196-0.334 0.283h-3.41c0.194-0.191 0.372-0.405 0.529-0.64zM20.894 26.778h-11.058v-0.726h11.058v0.726z"></path>
<path fill="#ff4b32" style="fill: var(--color2, #ff4b32)" d="M16.421 8.079c-0.007 0.005-0.013 0.008-0.018 0.011 0.004-0.003 0.010-0.006 0.018-0.011z"></path>
<path fill="#ff4b32" style="fill: var(--color2, #ff4b32)" d="M16.403 8.090c-0.011 0.007-0.010 0.006 0 0v0z"></path>
<path fill="#ff4b32" style="fill: var(--color2, #ff4b32)" d="M17.299 4.411c0.546-0.517 0.861-1.234 0.861-2.003 0-0.958-0.486-1.835-1.301-2.345-0.189-0.119-0.44-0.062-0.559 0.127s-0.062 0.438 0.127 0.557c0.578 0.362 0.922 0.983 0.922 1.661s-0.345 1.299-0.922 1.661c-0.248 0.155-0.248 0.529 0 0.684 0.578 0.362 0.922 0.983 0.922 1.661s-0.345 1.299-0.922 1.661c-0.002 0.001-0.003 0.002-0.005 0.003 0.002-0.001 0.003-0.002 0.005-0.003-0.19 0.119-0.247 0.368-0.127 0.557 0.077 0.122 0.209 0.189 0.343 0.189 0.074 0 0.149-0.020 0.216-0.062 0.815-0.511 1.301-1.388 1.301-2.345 0-0.769-0.315-1.486-0.861-2.003zM16.638 7.943c0.010-0.006 0.011-0.007 0 0v0zM16.585 7.976c0.009-0.006 0.017-0.011 0.024-0.015-0.007 0.004-0.015 0.009-0.024 0.015z"></path>
<path fill="#ff4b32" style="fill: var(--color2, #ff4b32)" d="M19.712 4.069c-0.19-0.119-0.44-0.062-0.559 0.127s-0.062 0.438 0.127 0.557c0.578 0.362 0.922 0.983 0.922 1.661s-0.345 1.299-0.922 1.661c-0.19 0.119-0.247 0.368-0.127 0.557 0.077 0.122 0.209 0.189 0.344 0.189 0.074 0 0.149-0.020 0.216-0.062 0.815-0.511 1.301-1.388 1.301-2.345s-0.486-1.835-1.301-2.345z"></path>
<path fill="#ff4b32" style="fill: var(--color2, #ff4b32)" d="M13.77 4.069c-0.19-0.119-0.44-0.062-0.559 0.127s-0.062 0.438 0.127 0.557c0.578 0.362 0.922 0.983 0.922 1.661s-0.345 1.299-0.922 1.661c-0.19 0.119-0.247 0.368-0.127 0.557 0.077 0.122 0.209 0.189 0.344 0.189 0.074 0 0.149-0.020 0.216-0.062 0.815-0.511 1.301-1.388 1.301-2.345s-0.486-1.834-1.301-2.345z"></path>
</symbol>
</defs>
</svg>
